<svg width="96" height="96" viewBox="0 0 96 96" fill="none" xmlns="http://www.w3.org/2000/svg">
<rect width="96" height="96" fill="url(#paint0_linear_274_140)"/>
<ellipse cx="48" cy="82" rx="35" ry="3" fill="black" fill-opacity="0.1"/>
<circle cx="45" cy="48" r="31" fill="#D9E3F8" stroke="#555F71" stroke-width="2"/>
<circle cx="51" cy="48" r="31" fill="#D9E3F8" stroke="#555F71" stroke-width="2"/>
<path d="M63 37C64.7708 37 66.4967 38.0765 67.8252 40.0693C69.149 42.0551 70 44.8562 70 48C70 51.1438 69.149 53.9449 67.8252 55.9307C66.4967 57.9235 64.7708 59 63 59C61.2292 59 59.5033 57.9235 58.1748 55.9307C56.851 53.9449 56 51.1438 56 48C56 44.8562 56.851 42.0551 58.1748 40.0693C59.5033 38.0765 61.2292 37 63 37Z" fill="#F9F9FF" stroke="#555F71" stroke-width="2"/>
<circle cx="62.5" cy="47.5" r="4.5" fill="#555F71"/>
<ellipse cx="63.5" cy="50" rx="1.5" ry="1" fill="#F9F9FF"/>
<circle cx="60.5" cy="44.5" r="2.5" fill="#F9F9FF"/>
<path d="M39 37C40.7708 37 42.4967 38.0765 43.8252 40.0693C45.149 42.0551 46 44.8562 46 48C46 51.1438 45.149 53.9449 43.8252 55.9307C42.4967 57.9235 40.7708 59 39 59C37.2292 59 35.5033 57.9235 34.1748 55.9307C32.851 53.9449 32 51.1438 32 48C32 44.8562 32.851 42.0551 34.1748 40.0693C35.5033 38.0765 37.2292 37 39 37Z" fill="#F9F9FF" stroke="#555F71" stroke-width="2"/>
<circle cx="39.5" cy="47.5" r="4.5" fill="#555F71"/>
<ellipse cx="40.5" cy="50" rx="1.5" ry="1" fill="#F9F9FF"/>
<circle cx="37.5" cy="44.5" r="2.5" fill="#F9F9FF"/>
<path d="M32 34C32 34 36.0259 32 39 32C41.9741 32 46 34 46 34" stroke="#555F71" stroke-width="2" stroke-linecap="round"/>
<path d="M56 34C56 34 60.0259 32 63 32C65.9741 32 70 34 70 34" stroke="#555F71" stroke-width="2" stroke-linecap="round"/>
<path d="M42 66C42 66 47.503 67.4034 51 67C54.497 66.5966 59.5 64 59.5 64" stroke="#555F71" stroke-width="2" stroke-linecap="round"/>
<path d="M72.6795 79.5056L66.9454 75.4905C65.3169 73.2949 65.3813 66.9373 65.2264 65.7414C65.0714 64.5456 65.3882 57.9197 65.6887 56.9093C65.9892 55.899 66.2557 54.6553 67.4094 54.4519C68.5632 54.2484 69.6213 54.7799 69.8669 56.1726C70.0658 57.301 70.3919 61.3229 70.5086 62.8092C70.5233 62.9965 70.7619 63.0662 70.8697 62.9123L77.4346 53.5366C78.0082 52.7174 79.4815 53.1387 80.3429 53.7418C81.2042 54.3449 82.104 55.5853 81.5304 56.4045L82.6775 54.7662C83.2511 53.947 84.7244 54.3682 85.5858 54.9714C86.4471 55.5745 87.3469 56.8149 86.7733 57.634L84.479 60.9106C85.0956 60.03 86.5259 60.5127 87.3872 61.1159C88.2486 61.719 89.1483 62.9594 88.5748 63.7785L79.9711 76.0658C77.4098 77.8968 75.3915 79.8489 72.6795 79.5056Z" fill="#D9E3F8"/>
<path d="M79.9711 76.0658C77.4098 77.8968 75.3915 79.8489 72.6795 79.5056C71.8603 78.932 67.7646 76.0641 66.9454 75.4905C65.3169 73.2949 65.3813 66.9373 65.2264 65.7414C65.0714 64.5456 65.3882 57.9197 65.6887 56.9093C65.9892 55.899 66.2557 54.6553 67.4094 54.4519C68.5632 54.2484 69.6213 54.7799 69.8669 56.1726C70.0658 57.301 70.3919 61.323 70.5086 62.8092C70.5233 62.9965 70.7619 63.0662 70.8697 62.9123C72.1572 61.0735 76.9388 54.2447 77.4346 53.5366C78.0082 52.7174 79.4815 53.1387 80.3429 53.7418C81.2042 54.3449 82.104 55.5853 81.5304 56.4045C80.9568 57.2236 77.685 61.8962 75.2211 65.4151C72.7571 68.934 82.104 55.5853 82.6775 54.7662C83.2511 53.947 84.7244 54.3682 85.5858 54.9714C86.4471 55.5745 87.3469 56.8149 86.7733 57.634C86.1997 58.4532 78.1697 69.9213 78.1697 69.9213C78.1697 69.9213 83.9054 61.7298 84.479 60.9106C85.0956 60.03 86.5259 60.5127 87.3872 61.1159C88.2486 61.719 89.1483 62.9594 88.5748 63.7785C88.0012 64.5977 81.6918 73.6083 79.9711 76.0658Z" stroke="#555F71" stroke-width="2"/>
<defs>
<linearGradient id="paint0_linear_274_140" x1="0" y1="0" x2="48" y2="96" gradientUnits="userSpaceOnUse">
<stop stop-color="#A6C8FF"/>
<stop offset="0.3" stop-color="#3D5F90"/>
</linearGradient>
</defs>
</svg>
