<svg width="192" height="192" viewBox="0 0 192 192" fill="none" xmlns="http://www.w3.org/2000/svg">
<g clip-path="url(#clip0_263_2)">
<rect width="192" height="192" rx="15" fill="url(#paint0_linear_263_2)"/>
<path d="M108.5 102.25C103.292 102.25 98.8646 100.427 95.2188 96.7812C91.5729 93.1354 89.75 88.7083 89.75 83.5C89.75 78.2917 91.5729 73.8646 95.2188 70.2188C98.8646 66.5729 103.292 64.75 108.5 64.75C113.708 64.75 118.135 66.5729 121.781 70.2188C125.427 73.8646 127.25 78.2917 127.25 83.5C127.25 88.7083 125.427 93.1354 121.781 96.7812C118.135 100.427 113.708 102.25 108.5 102.25ZM64.75 121C61.3125 121 58.3698 119.776 55.9219 117.328C53.474 114.88 52.25 111.938 52.25 108.5V58.5C52.25 55.0625 53.474 52.1198 55.9219 49.6719C58.3698 47.224 61.3125 46 64.75 46H152.25C155.688 46 158.63 47.224 161.078 49.6719C163.526 52.1198 164.75 55.0625 164.75 58.5V108.5C164.75 111.938 163.526 114.88 161.078 117.328C158.63 119.776 155.688 121 152.25 121H64.75ZM77.25 108.5H139.75C139.75 105.062 140.974 102.12 143.422 99.6719C145.87 97.224 148.812 96 152.25 96V71C148.812 71 145.87 69.776 143.422 67.3281C140.974 64.8802 139.75 61.9375 139.75 58.5H77.25C77.25 61.9375 76.026 64.8802 73.5781 67.3281C71.1302 69.776 68.1875 71 64.75 71V96C68.1875 96 71.1302 97.224 73.5781 99.6719C76.026 102.12 77.25 105.062 77.25 108.5ZM139.75 146H39.75C36.3125 146 33.3698 144.776 30.9219 142.328C28.474 139.88 27.25 136.938 27.25 133.5V71C27.25 69.2292 27.849 67.7448 29.0469 66.5469C30.2448 65.349 31.7292 64.75 33.5 64.75C35.2708 64.75 36.7552 65.349 37.9531 66.5469C39.151 67.7448 39.75 69.2292 39.75 71V133.5H139.75C141.521 133.5 143.005 134.099 144.203 135.297C145.401 136.495 146 137.979 146 139.75C146 141.521 145.401 143.005 144.203 144.203C143.005 145.401 141.521 146 139.75 146Z" fill="white"/>
</g>
<defs>
<linearGradient id="paint0_linear_263_2" x1="24.6316" y1="3.05717e-06" x2="123.158" y2="192" gradientUnits="userSpaceOnUse">
<stop stop-color="#A6C8FF"/>
<stop offset="0.403193" stop-color="#3D5F90"/>
</linearGradient>
<clipPath id="clip0_263_2">
<rect width="192" height="192" fill="white"/>
</clipPath>
</defs>
</svg>
